<?xml version="1.0" encoding="utf-8"?>
<!-- Generator: Adobe Illustrator 14.0.0, SVG Export Plug-In . SVG Version: 6.00 Build 43363)  -->
<!DOCTYPE svg PUBLIC "-//W3C//DTD SVG 1.1//EN" "http://www.w3.org/Graphics/SVG/1.1/DTD/svg11.dtd">
<svg version="1.1" id="Capa_1" xmlns="http://www.w3.org/2000/svg" xmlns:xlink="http://www.w3.org/1999/xlink" x="0px" y="0px"
	 width="300px" height="300px" viewBox="0 0 300 300" enable-background="new 0 0 300 300" xml:space="preserve">
<g>
	<g>
		<path fill="#E00000" d="M163.086,268.945h-25.879c-3.235,0-5.859,2.624-5.859,5.859s2.624,5.859,5.859,5.859h25.879
			c3.235,0,5.859-2.624,5.859-5.859S166.322,268.945,163.086,268.945z"/>
	</g>
</g>
<g>
	<g>
		<path fill="#E00000" d="M210.392,44.133c-1.089-1.089-2.601-1.717-4.142-1.717s-3.053,0.627-4.143,1.717s-1.717,2.602-1.717,4.143
			c0,1.547,0.626,3.053,1.717,4.143c1.09,1.096,2.602,1.717,4.143,1.717s3.052-0.621,4.142-1.717c1.09-1.09,1.718-2.602,1.718-4.143
			S211.483,45.229,210.392,44.133z"/>
	</g>
</g>
<g>
	<g>
		<path fill="#E00000" d="M294.14,90.228c3.235,0,5.859-2.624,5.859-5.859v-36.09c0-2.288-1.313-4.265-3.226-5.229
			c-0.029-0.016-0.055-0.032-0.087-0.048L208.797,0.583c-1.608-0.777-3.484-0.777-5.093,0l-87.891,42.418
			c-2.025,0.977-3.313,3.028-3.313,5.277c0,2.249,1.287,4.299,3.313,5.277l34.255,16.532v36.24c0,0.275,0.022,0.546,0.06,0.813
			H148.5c-10.767,0-19.525,8.759-19.525,19.525c0,10.766,8.759,19.525,19.525,19.525h1.893c1.78,16.609,10.827,31.072,23.89,40.145
			h-54.584c-3.43,0-6.671,0.816-9.541,2.264v-86.473c0-5.261,4.28-9.541,9.541-9.541h15.136c3.235,0,5.859-2.624,5.859-5.859
			c0-3.236-2.624-5.859-5.859-5.859h-15.136c-6.057,0-11.524,2.549-15.4,6.626c-3.876-4.077-9.344-6.626-15.4-6.626H5.859
			C2.624,80.868,0,83.491,0,86.727v105.468v22.86c0,3.235,2.624,5.859,5.859,5.859h7.029v28.694H5.859
			c-3.235,0-5.859,2.624-5.859,5.859v10.547C0,284.754,15.246,300,33.984,300h232.031C284.755,300,300,284.754,300,266.016v-10.547
			c0-3.235-2.624-5.859-5.859-5.859h-7.033v-86.133c0-3.235-2.623-5.859-5.859-5.859c-3.235,0-5.859,2.624-5.859,5.859v86.133
			H24.607v-28.695h178.127c3.235,0,5.859-2.623,5.859-5.859v-18.762c27.88-1.15,50.579-22.711,53.515-50.102h1.893
			c10.767,0,19.525-8.759,19.525-19.525c0-10.767-8.759-19.525-19.525-19.525h-1.628c0.037-0.268,0.06-0.538,0.06-0.813v-36.24
			l25.849-12.475v26.756C288.281,87.604,290.905,90.228,294.14,90.228z M150.067,134.473h-1.568c-4.305,0-7.807-3.501-7.807-7.806
			c0-4.305,3.502-7.807,7.807-7.807h1.568V134.473z M11.719,92.586h77.178c5.262,0,9.541,4.28,9.541,9.541V188.6
			c-2.87-1.447-6.112-2.264-9.541-2.264H11.719V92.586z M288.281,261.328v4.688c0,12.277-9.988,22.266-22.266,22.266H33.984
			c-12.277,0-22.266-9.988-22.266-22.266v-4.688H288.281z M11.719,209.195v-11.141h77.178c5.262,0,9.541,4.281,9.541,9.541
			c0,0.556,0.083,1.092,0.227,1.6H11.719z M262.432,118.859h1.568c4.305,0,7.807,3.502,7.807,7.807c0,4.305-3.502,7.807-7.807,7.807
			h-1.568V118.859z M196.875,209.197h-86.945v-0.001c0.145-0.509,0.227-1.045,0.227-1.6c0-5.261,4.28-9.541,9.541-9.541h77.178
			V209.197z M250.713,140.163c0.001,24.518-19.945,44.464-44.463,44.464s-44.464-19.946-44.464-44.464v-24.855l42.104,18.524
			c0.752,0.331,1.556,0.496,2.36,0.496c0.804,0,1.607-0.165,2.359-0.496l42.104-18.524V140.163z M250.714,102.504l-44.464,19.562
			l-44.464-19.562V75.743l41.917,20.23c0.805,0.388,1.676,0.583,2.547,0.583s1.743-0.194,2.547-0.583l41.917-20.23V102.504
			L250.714,102.504z M222.729,54.137h45.79L206.25,84.19l-74.41-35.912l74.41-35.913l62.27,30.053h-45.79
			c-3.235,0-5.859,2.624-5.859,5.859S219.494,54.137,222.729,54.137z"/>
	</g>
</g>
<g>
	<g>
		<path fill="#E00000" d="M298.283,106.359c-1.09-1.089-2.602-1.717-4.143-1.717s-3.053,0.627-4.143,1.717s-1.717,2.602-1.717,4.143
			s0.627,3.053,1.717,4.143c1.09,1.089,2.602,1.717,4.143,1.717s3.053-0.627,4.143-1.717s1.717-2.602,1.717-4.143
			S299.373,107.45,298.283,106.359z"/>
	</g>
</g>
<g>
	<g>
		<path fill="#E00000" d="M78.445,149.373c-1.096-1.09-2.602-1.717-4.143-1.717s-3.053,0.626-4.142,1.717
			c-1.096,1.096-1.718,2.602-1.718,4.143s0.622,3.053,1.718,4.143c1.089,1.096,2.596,1.717,4.142,1.717
			c1.541,0,3.053-0.621,4.143-1.717c1.09-1.09,1.717-2.596,1.717-4.143C80.162,151.975,79.536,150.463,78.445,149.373z"/>
	</g>
</g>
<g>
	<g>
		<path fill="#E00000" d="M52.148,147.666h-18.75c-3.235,0-5.859,2.624-5.859,5.859c0,3.236,2.624,5.859,5.859,5.859h18.75
			c3.235,0,5.859-2.623,5.859-5.859C58.008,150.29,55.385,147.666,52.148,147.666z"/>
	</g>
</g>
<g>
	<g>
		<path fill="#E00000" d="M74.301,119.538H33.398c-3.235,0-5.859,2.624-5.859,5.859c0,3.236,2.624,5.859,5.859,5.859h40.902
			c3.236,0,5.859-2.624,5.859-5.859C80.16,122.162,77.537,119.538,74.301,119.538z"/>
	</g>
</g>
</svg>
